<svg xmlns="http://www.w3.org/2000/svg" viewBox="0 0 135 135"><defs><style>.a{fill:#fff;}.b{fill:#141414;}</style></defs><title>Asset 8</title><circle class="a" cx="67.5" cy="67.5" r="67.5"/><path class="b" d="M63.84,83.67a1.75,1.75,0,0,0,0-2.5,1.77,1.77,0,1,0,0,2.5Z"/><path class="b" d="M55.45,41.62A19.49,19.49,0,1,0,74.94,22.13,19.51,19.51,0,0,0,55.45,41.62Zm35.44,0a15.95,15.95,0,1,1-16-15.94A16,16,0,0,1,90.89,41.62Z"/><path class="b" d="M42.55,112.34a1.78,1.78,0,0,0,2.5,0l8.59-8.47a5.35,5.35,0,0,0,1.27-5.49l1.84-1.78a5.27,5.27,0,0,1,3.69-1.5H84a15.86,15.86,0,0,0,11.12-4.51c.13-.12-.93,1.12,16.07-19.2a7.09,7.09,0,0,0-10.78-9.2L89.94,73a7.13,7.13,0,0,0-5.5-2.64H64.68a23,23,0,0,0-8.87-1.77c-8.53,0-16,3.94-20,11.33a5.29,5.29,0,0,0-4.74,1.47L22.67,89.8a1.78,1.78,0,0,0,0,2.5ZM55.81,72.09a19.31,19.31,0,0,1,7.8,1.63,1.71,1.71,0,0,0,.71.15H84.44a3.54,3.54,0,1,1,0,7.08H70a1.77,1.77,0,0,0,0,3.54H84.44a7.09,7.09,0,0,0,7.08-7.08,7.26,7.26,0,0,0-.06-.93c10.11-10.39,11.54-11.85,11.6-11.93a3.54,3.54,0,1,1,5.41,4.58l-15.89,19A12.33,12.33,0,0,1,84,91.58H60.44a8.78,8.78,0,0,0-6.15,2.49l-1.5,1.45L38.91,81.64C42.15,75.55,48.24,72.09,55.81,72.09ZM33.6,83.85a1.77,1.77,0,0,1,2.19-.25c.31.19-.57-.61,15.35,15.28a1.78,1.78,0,0,1,0,2.5l-7.32,7.21L26.42,91.05Z"/><path class="b" d="M72.82,31v2.08a5.31,5.31,0,0,0,1.77,10.32,1.78,1.78,0,0,1,0,3.55,3.2,3.2,0,0,1-2.3-1.34,1.77,1.77,0,1,0-2.71,2.28,7.29,7.29,0,0,0,3.24,2.3v2.07a1.77,1.77,0,1,0,3.54,0V50.18a5.32,5.32,0,0,0-1.77-10.33,1.77,1.77,0,0,1,0-3.54,2.83,2.83,0,0,1,1.91.92A1.77,1.77,0,1,0,79,34.69a6.75,6.75,0,0,0-2.61-1.63V31a1.77,1.77,0,1,0-3.54,0Z"/></svg>