<svg xmlns="http://www.w3.org/2000/svg" viewBox="0 0 106.68 47.41"><title>1Asset 3</title><g id="e51b6a07-9573-48be-9904-3b2542619d88" data-name="Layer 2"><g id="bacfb1e8-2f22-4775-afc4-b54aa8dc4932" data-name="Layer 2"><path d="M26.81,19.3A18.8,18.8,0,0,1,25.32,7.52H21.51V19.6H9.1V7.52H0V39.69H9.1V27.14H21.51V39.69h9.1V27.07C29.18,24.35,27.86,21.7,26.81,19.3Z" fill="#fff"/><path d="M71.93,9a18.49,18.49,0,0,0-7.59-1.44H56.41c-.47,3.83-1.88,9.58-4.95,18.47-.71,2.05-1.31,4-1.82,5.71v8h9.1V31.28h5.6a18.48,18.48,0,0,0,7.59-1.45,11.37,11.37,0,0,0,5-4.11,11.28,11.28,0,0,0,1.75-6.3A10.92,10.92,0,0,0,71.93,9ZM68,22.89a6.37,6.37,0,0,1-4.23,1.22h-5V14.69h5A6.27,6.27,0,0,1,68,15.93a4.37,4.37,0,0,1,1.42,3.49A4.31,4.31,0,0,1,68,22.89Z" fill="#fff"/><path d="M54.18,7.52h0c.08-.65.14-1.26.17-1.83h0c0-.28,0-.55,0-.81v0A7.81,7.81,0,0,0,54,2.24l0-.08c-.05-.13-.11-.25-.17-.37l-.06-.1-.19-.29-.08-.09a1.7,1.7,0,0,0-.24-.22L53.17,1a2,2,0,0,0-.32-.18l-.05,0a2.43,2.43,0,0,0-.43-.12h-.09a2.34,2.34,0,0,0-.38,0h-.16l-.37,0-.19,0-.41.11-.2.06c-.2.08-.42.16-.65.27a13.59,13.59,0,0,0-8,11c-.08-.37-.16-.76-.23-1.15l-.18-.88-.09-.42c0-.23-.09-.45-.13-.67s-.07-.3-.1-.45S41.06,8.18,41,8s-.07-.32-.11-.47-.09-.4-.14-.6l-.12-.47-.15-.56-.14-.47-.16-.52c0-.16-.11-.3-.16-.45L39.85,4c-.06-.15-.11-.29-.17-.43l-.21-.45c-.06-.13-.12-.26-.19-.39l-.23-.4-.21-.34c-.08-.13-.17-.24-.26-.36a2.17,2.17,0,0,0-.24-.29A2.57,2.57,0,0,0,38.06,1a2,2,0,0,0-.27-.24,2.35,2.35,0,0,0-.32-.23L37.18.36a2.39,2.39,0,0,0-.37-.15L36.5.1A2.83,2.83,0,0,0,36.08,0a1.75,1.75,0,0,0-.33,0A4.29,4.29,0,0,0,35,.06a7,7,0,0,0-1,.28l-.09,0a8,8,0,0,0-1,.45l-.06,0a12,12,0,0,0-1.05.65l0,0a9.24,9.24,0,0,0-1,.81l-.05,0a10.57,10.57,0,0,0-1.78,2.2l0,0A13,13,0,0,0,28.14,6V6a12.15,12.15,0,0,0-.54,1.54c-.81,2.9-.67,6.57,1.23,10.9.78,1.77,1.71,3.69,2.72,5.68l.39.75L32.55,26l.45.86.59,1.1c.16.31.32.61.49.91L34.65,30l.51.92c.19.35.38.7.58,1.05l.5.92c.19.33.37.66.55,1,.87,1.55,1.72,3.07,2.51,4.5l.21.37.74,1.34.31.56.58,1.06.33.6.49.92c.1.19.21.38.3.57s.3.56.44.83l.25.51c.14.28.27.53.39.79l.19.38c.17.36.32.7.45,1a.22.22,0,0,0,.1.11h0l.09,0,.09,0,.05,0a.21.21,0,0,0,.07-.15h0a46.41,46.41,0,0,1,.95-7.5,109.29,109.29,0,0,1,4-14.42l.26-.74h0C51.74,18.37,53.59,12.09,54.18,7.52Z" fill="#fff"/><polygon points="89.86 32.66 89.86 26.77 104.15 26.77 104.15 19.97 89.86 19.97 89.86 14.55 106.08 14.55 106.08 7.51 80.85 7.51 80.85 39.69 106.68 39.69 106.68 32.66 89.86 32.66" fill="#fff"/></g></g></svg>