<svg xmlns="http://www.w3.org/2000/svg" viewBox="0 0 96.94 43.08"><title>1Asset 1</title><g id="e0286f0b-1d72-4fab-95b4-cea822752b7a" data-name="Layer 2"><g id="f89b40b0-d977-496b-bca9-6610e27f3591" data-name="Layer 2"><path d="M24.36,17.54A17.15,17.15,0,0,1,23,6.83H19.55v11H8.27v-11H0V36.07H8.27V24.66H19.55V36.07h8.27V24.6C26.52,22.13,25.32,19.72,24.36,17.54Z" fill="#ffc50f"/><path d="M65.36,8.14a16.77,16.77,0,0,0-6.89-1.31H51.26c-.42,3.48-1.71,8.71-4.49,16.78-.65,1.88-1.19,3.6-1.66,5.2v7.26h8.27V28.42h5.09a16.77,16.77,0,0,0,6.89-1.31,10.27,10.27,0,0,0,4.51-3.74,10.19,10.19,0,0,0,1.59-5.72,9.92,9.92,0,0,0-6.1-9.51ZM61.81,20.8A5.75,5.75,0,0,1,58,21.91H53.38V13.35H58a5.7,5.7,0,0,1,3.84,1.12,4,4,0,0,1,1.3,3.18A3.91,3.91,0,0,1,61.81,20.8Z" fill="#ffc50f"/><path d="M49.23,6.83h0c.08-.58.13-1.14.16-1.66h0c0-.26,0-.5,0-.74v0A7.26,7.26,0,0,0,49.09,2l0-.07c-.05-.12-.1-.24-.15-.34l-.06-.1a2.2,2.2,0,0,0-.17-.25l-.07-.09a2.09,2.09,0,0,0-.22-.2L48.32.93A1.69,1.69,0,0,0,48,.76L48,.74a1.6,1.6,0,0,0-.39-.11h-.08l-.35,0H47a2.15,2.15,0,0,0-.34.05l-.17,0-.38.1L46,.85a5.63,5.63,0,0,0-.59.24,12.34,12.34,0,0,0-7.31,10l-.21-1c-.06-.27-.11-.54-.17-.81s0-.25-.07-.38-.09-.4-.13-.61l-.09-.41-.12-.56c0-.15-.06-.29-.1-.43s-.08-.36-.13-.54S37,6,36.93,5.85s-.09-.34-.14-.51l-.12-.42-.15-.48L36.38,4c-.06-.15-.11-.3-.17-.44l-.15-.39c-.06-.14-.13-.27-.19-.41s-.11-.24-.17-.35l-.21-.37-.2-.31a3.71,3.71,0,0,0-.23-.32l-.22-.27a3.19,3.19,0,0,0-.26-.26,2.39,2.39,0,0,0-.23-.22c-.1-.08-.2-.14-.3-.21L33.79.32,33.45.19l-.28-.1c-.12,0-.25,0-.38-.06s-.2,0-.3,0a3.52,3.52,0,0,0-.71.06,5.81,5.81,0,0,0-1,.25l-.08,0a8,8,0,0,0-.92.4l0,0a7.42,7.42,0,0,0-1,.59l0,0a10,10,0,0,0-.89.74l0,0a10.11,10.11,0,0,0-1.62,2l0,0a9.34,9.34,0,0,0-.63,1.22h0a12.18,12.18,0,0,0-.5,1.4c-.74,2.64-.61,6,1.12,9.91.71,1.6,1.55,3.35,2.48,5.16l.35.68c.18.36.37.72.56,1.08s.27.52.41.78l.53,1,.45.83.52,1,.46.83.52,1c.16.28.31.56.47.83s.33.6.5.9c.78,1.41,1.55,2.79,2.28,4.09l.18.34.68,1.21.28.52.53,1,.29.55.45.84c.1.17.19.35.28.52l.39.75c.08.16.16.31.23.46s.25.49.36.72a3.78,3.78,0,0,0,.17.35c.15.33.29.63.4.91a.29.29,0,0,0,.09.1h.12l.09,0s0,0,0,0a.2.2,0,0,0,.06-.14h0a43.58,43.58,0,0,1,.87-6.81A100.37,100.37,0,0,1,44.88,23c.07-.22.15-.44.23-.67h0A88.46,88.46,0,0,0,49.23,6.83Z" fill="#fd2136"/><polygon points="81.66 29.68 81.66 24.33 94.65 24.33 94.65 18.15 81.66 18.15 81.66 13.22 96.4 13.22 96.4 6.83 73.47 6.83 73.47 36.07 96.94 36.07 96.94 29.68 81.66 29.68" fill="#ffc50f"/></g></g></svg>