<svg xmlns="http://www.w3.org/2000/svg" viewBox="0 0 135 135"><defs><style>.a{fill:#fff;}.b{fill:#141414;}</style></defs><title>Asset 9</title><circle class="a" cx="67.5" cy="67.5" r="67.5"/><path class="b" d="M109.4,89.28a14.74,14.74,0,0,0-3.7-6.14,14.58,14.58,0,0,0-10.36-4.29A14.76,14.76,0,0,0,89.56,80L75.16,65.63l19.13-19,4.53-.12a1.63,1.63,0,0,0,1.33-.79l6.48-10.9a1.59,1.59,0,0,0-.24-1.95l-5.6-5.61a1.63,1.63,0,0,0-2-.24l-10.9,6.49a1.59,1.59,0,0,0-.78,1.33L87,39.36l-19.08,19L54.84,45.32A14.64,14.64,0,0,0,32.29,30.64a1.59,1.59,0,0,0-.43,2.22,1.52,1.52,0,0,0,.54.5l7.27,4c1.6.91,1.92,3.63.62,5.94s-3.78,3.49-5.4,2.59l-6.73-3.65a1.61,1.61,0,0,0-2.18.63,1.58,1.58,0,0,0-.19.88A14.65,14.65,0,0,0,41.32,57.5a14.9,14.9,0,0,0,4.84-1.15L58.08,68.26l-5.16,5.15-1.17-1.15a3.33,3.33,0,0,0-4.62,0l-1.61,1.6a3.2,3.2,0,0,0-.17,4.4L26.41,97.17a3.19,3.19,0,0,0-.1,4.52.94.94,0,0,0,.1.1l5.41,5.41a3.2,3.2,0,0,0,4.53.1l.1-.1L55.4,88.27a3.2,3.2,0,0,0,4.4-.18l1.6-1.6A3.2,3.2,0,0,0,61.5,82l-.1-.1-1.16-1.17,5.12-5.23L80.89,91a14.65,14.65,0,0,0,24.91,12.68,1.61,1.61,0,0,0-.13-2.26,1.68,1.68,0,0,0-.59-.34l-9-2.41a3,3,0,0,1-1.89-1.84A6,6,0,0,1,94,93c.68-2.52,2.81-4.31,4.6-3.83l8.92,2.4a1.55,1.55,0,0,0,.43,0A1.6,1.6,0,0,0,109.58,90,1.63,1.63,0,0,0,109.4,89.28ZM89.69,41.14a1.6,1.6,0,0,0,.47-1.09l.12-4.27,9.08-5.4,3.84,3.84-5.28,9.06-4.35.16a1.6,1.6,0,0,0-1.09.47L73,63.42l-2.76-2.75ZM34.17,104.93l-5.49-5.46,19-19,2.75,2.75L53.1,86ZM57.59,85.72l-2.11-2.13-.81-.81L47.94,76l1.6-1.6,9.61,9.74Zm.31-7.3-2.75-2.75,5.15-5.16,2.75,2.76Zm41.49,7.7a5.45,5.45,0,0,0-1.45-.19,7.84,7.84,0,0,0-7.06,6.27,9.1,9.1,0,0,0,.3,5.85,6.1,6.1,0,0,0,4,3.68l6,1.6a11.44,11.44,0,0,1-17-12.45,1.61,1.61,0,0,0-.43-1.49L47.64,53.27a1.6,1.6,0,0,0-1.89-.22,11.45,11.45,0,0,1-16.12-6.21l3.65,2a5.65,5.65,0,0,0,2.78.72A8.35,8.35,0,0,0,43,45c2.17-3.89,1.33-8.51-1.88-10.31L36.5,32.09a11.46,11.46,0,0,1,15,13.37A1.58,1.58,0,0,0,51.93,47L88.09,83.1a1.59,1.59,0,0,0,1.87.28,11.56,11.56,0,0,1,5.37-1.32,11.43,11.43,0,0,1,9.86,5.63Z"/></svg>