<svg xmlns="http://www.w3.org/2000/svg" viewBox="0 0 135 135"><defs><style>.a{fill:#fff;}.b{fill:#141414;}</style></defs><title>Asset 7</title><circle class="a" cx="67.5" cy="67.5" r="67.5"/><path class="b" d="M115.26,86.35l-4.61-4.57A1.88,1.88,0,1,0,108,84.46L112.6,89a1.91,1.91,0,0,0,1.33.55,1.89,1.89,0,0,0,1.33-3.23Z"/><path class="b" d="M106,77.1a1.9,1.9,0,0,0-2.67,0h0a1.88,1.88,0,1,0,2.67,0Z"/><path class="b" d="M89.87,85.81l18.31-18.32a7.13,7.13,0,0,0,0-10.06,7.05,7.05,0,0,0-3.43-1.89,7.14,7.14,0,0,0,.66-3,7,7,0,0,0-2.09-5,7,7,0,0,0-3.82-2A7.11,7.11,0,0,0,94,36.29a7,7,0,0,0,.36-2.23A7.1,7.1,0,0,0,87.21,27a7,7,0,0,0-3.4.86l-.18-.2a12.62,12.62,0,0,0-9.2-4H59.61a1.89,1.89,0,0,0-1.89,1.89V28a8.55,8.55,0,0,0,.49,2.86,7.18,7.18,0,0,0-2.73-.54,7,7,0,0,0-5,2.09,7.12,7.12,0,0,0-1.72,7.26,7.13,7.13,0,0,0-5.91,7,7.17,7.17,0,0,0,.36,2.22,7.11,7.11,0,0,0-5.24,10,7,7,0,0,0-3.43,1.9,7.13,7.13,0,0,0,0,10.06l3.76,3.77L19.73,93.15a1.89,1.89,0,0,0,1.34,3.22,1.87,1.87,0,0,0,1.33-.55L41.12,77.1a7.15,7.15,0,0,0,3.52.93,7.11,7.11,0,0,0,7.1-7.4H52a7.1,7.1,0,0,0,7.11-7.11v-.29h.28a7.1,7.1,0,0,0,7.11-7.11v-.29h.28a7.11,7.11,0,0,0,5.5-11.62L84.85,31.7a3.34,3.34,0,0,1,4.72,4.72l-1.85,1.85L81,45a1.88,1.88,0,0,0,0,2.67,1.86,1.86,0,0,0,2.66,0l6.71-6.7a3.34,3.34,0,0,1,4.72,4.72l-1.85,1.85-4.85,4.85a1.88,1.88,0,0,0,0,2.67,1.86,1.86,0,0,0,1.33.56A1.9,1.9,0,0,0,91.08,55l4.85-4.85a3.34,3.34,0,1,1,4.72,4.72l-2.53,2.53L95.8,59.75A1.9,1.9,0,0,0,97.13,63a1.9,1.9,0,0,0,1.34-.56l2.32-2.32a3.34,3.34,0,0,1,4.72,4.73L87.19,83.14A25.59,25.59,0,0,1,70,90.64a1.87,1.87,0,0,0-1.27.55l-16.91,17a1.89,1.89,0,0,0,2.67,2.67L66.92,98.35a17.57,17.57,0,0,0,10.65,2.74l9.74,9.74A1.89,1.89,0,1,0,90,108.16L79.63,97.8a1.93,1.93,0,0,0-1.49-.55l-.6,0a13.74,13.74,0,0,1-7.88-1.71l1.21-1.22A29.32,29.32,0,0,0,89.87,85.81ZM47,73.27a3.33,3.33,0,0,1-4.72,0l-5.1-5.1a3.34,3.34,0,1,1,4.72-4.72l5.1,5.1A3.34,3.34,0,0,1,47,73.27Zm7.39-7.39a3.34,3.34,0,0,1-4.72,0l-5.1-5.1L42,58.24a3.34,3.34,0,0,1,4.72-4.72l7.64,7.64h0a3.33,3.33,0,0,1,0,4.72Zm7.39-7.39a3.34,3.34,0,0,1-4.72,0L47.58,49a3.33,3.33,0,0,1,0-4.72,3.28,3.28,0,0,1,2.36-1,3.35,3.35,0,0,1,2.36,1l4.32,4.33,5.16,5.16h0a3.33,3.33,0,0,1,0,4.72Zm7.39-7.39a3.34,3.34,0,0,1-4.72,0L55,41.62h0l-1.84-1.84a3.34,3.34,0,1,1,4.72-4.72L69.17,46.38a3.33,3.33,0,0,1,0,4.72Zm.5-9.56-5.19-5.19a8.43,8.43,0,0,0,1.81.19h0l5.18,0a1.89,1.89,0,0,0,0-3.78h0l-5.18,0h0A4.8,4.8,0,0,1,61.5,28v-.59H74.43a8.8,8.8,0,0,1,6.43,2.8l.08.09Z"/></svg>