<svg xmlns="http://www.w3.org/2000/svg" viewBox="0 0 197.39 197.39"><title>1Asset 5</title><g id="b318cdfb-b31a-4e9e-abb1-66876145fefc" data-name="Layer 2"><g id="a8ec392c-abdd-4a48-9bae-e25b8cbbaad8" data-name="Layer 2"><circle cx="98.7" cy="98.7" r="98.7" fill="#ffc50f"/><path d="M131.28,48.1a19.12,19.12,0,0,0-14.47-6.47c-6.28,0-11.72,3-15.74,8.59-.3.42-.58.84-.85,1.26q-.39-.63-.84-1.26c-4-5.62-9.46-8.59-15.74-8.59A19.09,19.09,0,0,0,69.17,48.1,22.27,22.27,0,0,0,63.71,63c0,6.13,2.38,11.79,7.49,17.81,4.46,5.26,10.85,10.65,18.26,16.9C92.2,100,95,102.39,98,105a3.33,3.33,0,0,0,4.38,0c3-2.61,5.84-5,8.57-7.3,4.76-4,8.87-7.49,12.43-10.85,6.92-6.53,13.33-13.94,13.33-23.87A22.27,22.27,0,0,0,131.28,48.1ZM118.82,82c-3.42,3.23-7.47,6.65-12.15,10.6-2.08,1.75-4.21,3.56-6.45,5.47-2.23-1.91-4.37-3.72-6.45-5.47C79.19,80.28,70.4,72.85,70.4,63c0-8.36,5.69-14.66,13.24-14.66,4,0,7.46,1.9,10.19,5.64A22.84,22.84,0,0,1,97,60.24a3.34,3.34,0,0,0,6.44,0c0-.12,3.42-11.92,13.37-11.92,7.55,0,13.24,6.3,13.24,14.66C130.05,69,126.9,74.37,118.82,82Z"/><path d="M145.72,109a10.1,10.1,0,0,0-7.34,3.19l-9.82,10.55a10.05,10.05,0,0,0-9.58-7H103.53a8.89,8.89,0,0,1-5.87-2.22A23.44,23.44,0,0,0,67,113.22,10,10,0,0,0,58.81,109H45a3.34,3.34,0,0,0-3.34,3.34v40.12A3.34,3.34,0,0,0,45,155.76H58.81a10,10,0,0,0,7.53-3.42l2,.55a77.06,77.06,0,0,0,20.81,2.87H119a23.53,23.53,0,0,0,18.72-9.36l16-21.4h0a9.94,9.94,0,0,0,2-6A10,10,0,0,0,145.72,109ZM62.15,145.73a3.35,3.35,0,0,1-3.34,3.34H48.33V115.65H58.81A3.35,3.35,0,0,1,62.15,119ZM148.4,121h0l-16.05,21.4A16.78,16.78,0,0,1,119,149.07H89.13a70.58,70.58,0,0,1-19-2.61l-1.3-.37c0-.12,0-.24,0-.36V120.5l2.32-2a16.76,16.76,0,0,1,22.09,0,15.57,15.57,0,0,0,10.28,3.88H119a3.35,3.35,0,0,1,0,6.69H95.22a3.34,3.34,0,0,0,0,6.68h26a10.08,10.08,0,0,0,7.34-3.19l14.71-15.8a3.3,3.3,0,0,1,2.45-1.06A3.35,3.35,0,0,1,148.4,121Z"/></g></g></svg>