<svg xmlns="http://www.w3.org/2000/svg" viewBox="0 0 197.39 197.39"><title>1Asset 4</title><g id="a9d2f32f-b511-4ffe-a868-cdcc59d16de0" data-name="Layer 2"><g id="b4778ebc-fd68-40de-ab94-115b4a534fba" data-name="Layer 2"><circle cx="98.7" cy="98.7" r="98.7" fill="#ffc50f"/><circle cx="58.24" cy="44.28" r="11.53"/><path d="M154.12,59.49c-23,0-15.06-.2-25.56,0l-16.81-9.14L104,28.25a5.56,5.56,0,0,0-5.11-3.72H98.5a5.58,5.58,0,0,0-5.11,3.72l-7.75,22.1-16.8,9.14c-10.51-.2-2.62,0-25.57,0A13.31,13.31,0,0,0,29.9,72.62V113.5a5.57,5.57,0,0,0,11.13,0V72.65h0a1.21,1.21,0,0,1,2.41,0v93.54a6.68,6.68,0,0,0,13.36,0V112.81h2.88v53.38a6.68,6.68,0,0,0,13.36,0V70.11h-.12l20-11a5.58,5.58,0,0,0,2.55-3l3.26-9.28L102,56a5.55,5.55,0,0,0,2.56,3l20,11h-.12v96.08a6.68,6.68,0,0,0,13.35,0V112.81h2.89v53.38a6.68,6.68,0,0,0,13.35,0V72.65a1.21,1.21,0,0,1,2.42,0h0V113.5a5.56,5.56,0,0,0,11.12,0V72.62A13.3,13.3,0,0,0,154.12,59.49Z"/><circle cx="139.16" cy="44.28" r="11.53"/></g></g></svg>